<?xml version="1.0" encoding="UTF-8"?>
<svg xmlns="http://www.w3.org/2000/svg" xmlns:xlink="http://www.w3.org/1999/xlink" width="2717.65pt" height="4108.72pt" viewBox="0 0 2717.65 4108.72" version="1.1">
<defs>
<clipPath id="clip1">
  <path d="M 0 2568 L 2717.648438 2568 L 2717.648438 4108.71875 L 0 4108.71875 Z M 0 2568 "/>
</clipPath>
</defs>
<g id="surface1">
<path style=" stroke:none;fill-rule:evenodd;fill:rgb(85.546875%,14.501953%,11.376953%);fill-opacity:1;" d="M 500.121094 208.429688 L 233.910156 208.429688 L 233.910156 342.878906 L 368.300781 342.878906 L 368.300781 1011.320313 L 501.402344 1011.320313 Z M 2504.441406 995.21875 L 1321.070313 995.21875 L 1295.949219 994.699219 L 1271.121094 992.808594 L 1246.429688 990.011719 L 1222.300781 985.859375 L 1198.460938 980.789063 L 1175.179688 974.53125 L 1152.210938 967.121094 L 1129.78125 958.789063 L 1107.921875 949.511719 L 1086.5 939.148438 L 1065.789063 927.96875 L 1045.621094 915.730469 L 1026.179688 902.640625 L 1007.441406 888.671875 L 989.421875 873.851563 L 972.113281 858.210938 L 955.660156 841.808594 L 939.898438 824.589844 L 925.140625 806.601563 L 911.242188 788 L 898.183594 768.511719 L 886.105469 748.480469 L 875.058594 727.769531 L 864.976563 706.460938 L 856.027344 684.621094 L 848.230469 662.171875 L 841.40625 639.050781 L 835.742188 615.621094 L 831.347656 591.441406 L 828.222656 567.03125 L 826.230469 542.089844 L 825.519531 516.78125 L 826.230469 491.25 L 827.941406 466.121094 L 831.050781 441.121094 L 835.179688 416.429688 L 840.421875 392 L 846.808594 368.011719 L 854.328125 344.449219 L 862.851563 321.148438 L 872.359375 298.570313 L 882.867188 276.441406 L 894.496094 254.859375 L 906.96875 233.851563 L 920.460938 213.539063 L 934.800781 193.941406 L 949.964844 174.921875 L 966.167969 156.738281 L 983.03125 139.421875 L 1000.789063 122.808594 L 1019.371094 107.210938 L 1038.679688 92.429688 L 1058.691406 78.660156 L 1079.390625 65.878906 L 1100.96875 54.089844 L 1122.960938 43.460938 L 1145.820313 33.941406 L 1169.21875 25.410156 L 1193.210938 18.179688 L 1217.761719 12.230469 L 1242.738281 7.539063 L 1268.410156 3.988281 L 1294.53125 1.988281 L 1321.070313 1.289063 L 1347.75 1.851563 L 1373.871094 3.839844 L 1399.398438 7.101563 L 1424.53125 11.660156 L 1449.050781 17.328125 L 1473.199219 24.28125 L 1496.628906 32.371094 L 1519.308594 41.609375 L 1541.589844 51.828125 L 1563.019531 63.179688 L 1583.878906 75.539063 L 1603.910156 88.878906 L 1623.339844 103.21875 L 1641.921875 118.558594 L 1659.679688 134.601563 L 1676.679688 151.640625 L 1692.859375 169.539063 L 1708.199219 188.269531 L 1722.519531 207.710938 L 1736.160156 227.878906 L 1748.621094 248.75 L 1760.269531 270.460938 L 1770.929688 292.621094 L 1780.398438 315.480469 L 1789.101563 338.890625 L 1796.46875 362.890625 L 1803.011719 387.449219 L 1808.261719 412.441406 L 1812.378906 437.859375 L 1815.46875 463.851563 L 1817.179688 490.109375 L 1817.890625 516.78125 L 1684.769531 516.78125 L 1684.050781 498.351563 L 1682.808594 480.179688 L 1680.648438 462 L 1677.710938 443.980469 L 1674.148438 426.21875 L 1669.730469 408.609375 L 1664.78125 391.300781 L 1658.96875 374.261719 L 1652.421875 357.640625 L 1645.210938 341.179688 L 1637.378906 325.269531 L 1628.738281 309.648438 L 1619.359375 294.609375 L 1609.429688 279.988281 L 1598.808594 265.78125 L 1587.578125 252.148438 L 1575.539063 239.230469 L 1562.878906 226.898438 L 1549.679688 215.109375 L 1535.78125 204.03125 L 1521.160156 193.660156 L 1505.960938 184 L 1490.199219 175.199219 L 1473.769531 167.121094 L 1456.730469 159.871094 L 1439.121094 153.628906 L 1420.980469 148.089844 L 1402.089844 143.679688 L 1382.671875 140.128906 L 1362.78125 137.589844 L 1342.21875 136.171875 L 1321.070313 135.730469 L 1299.929688 136.171875 L 1279.199219 137.871094 L 1259.199219 140.570313 L 1239.761719 144.25 L 1220.878906 148.941406 L 1202.570313 154.609375 L 1184.839844 161.140625 L 1167.808594 168.53125 L 1151.351563 176.769531 L 1135.460938 185.859375 L 1120.269531 195.640625 L 1105.648438 206.148438 L 1091.738281 217.371094 L 1078.558594 229.300781 L 1065.921875 241.929688 L 1053.851563 255 L 1042.648438 268.628906 L 1032.011719 282.820313 L 1022.070313 297.589844 L 1012.980469 312.78125 L 1004.328125 328.261719 L 996.527344 344.148438 L 989.421875 360.488281 L 983.03125 377.089844 L 977.367188 393.988281 L 972.546875 411.019531 L 968.300781 428.351563 L 964.878906 445.808594 L 962.175781 463.421875 L 960.1875 481.160156 L 959.0625 498.921875 L 958.640625 516.78125 L 959.214844 532.871094 L 960.472656 548.890625 L 962.742188 564.910156 L 965.722656 580.710938 L 969.566406 596.578125 L 974.246094 612.21875 L 979.78125 627.71875 L 986.019531 642.910156 L 992.972656 657.789063 L 1000.789063 672.53125 L 1009.300781 686.890625 L 1018.378906 700.949219 L 1028.308594 714.550781 L 1038.808594 727.929688 L 1050.03125 740.699219 L 1061.800781 753.011719 L 1074.140625 764.960938 L 1087.210938 776.289063 L 1100.828125 786.949219 L 1114.878906 797.230469 L 1129.5 806.75 L 1144.679688 815.519531 L 1160.421875 823.761719 L 1176.609375 831.160156 L 1193.210938 837.960938 L 1210.238281 843.769531 L 1227.828125 848.839844 L 1245.71875 853.148438 L 1264.019531 856.398438 L 1282.75 858.808594 L 1301.769531 860.410156 L 1321.070313 860.78125 L 2504.441406 860.78125 Z M 2504.441406 784.449219 L 1319.941406 784.449219 L 1305.160156 784 L 1290.699219 782.871094 L 1276.371094 781.128906 L 1262.320313 778.628906 L 1248.558594 775.460938 L 1235.070313 771.609375 L 1221.738281 767.070313 L 1208.808594 762.160156 L 1196.179688 756.339844 L 1183.851563 750.058594 L 1171.929688 743.261719 L 1160.421875 735.859375 L 1149.21875 727.929688 L 1138.578125 719.539063 L 1128.210938 710.621094 L 1118.28125 701.101563 L 1108.921875 691.28125 L 1099.980469 680.921875 L 1091.589844 670.109375 L 1083.660156 659.078125 L 1076.28125 647.441406 L 1069.320313 635.5 L 1063.078125 623.25 L 1057.398438 610.628906 L 1052.300781 597.558594 L 1047.898438 584.410156 L 1044.050781 570.878906 L 1040.941406 557.128906 L 1038.390625 543.070313 L 1036.539063 528.71875 L 1035.558594 514.238281 L 1035.121094 499.488281 L 1035.410156 484.859375 L 1036.410156 470.371094 L 1037.960938 456.179688 L 1040.371094 442.128906 L 1043.359375 428.351563 L 1047.039063 414.730469 L 1051.449219 401.378906 L 1056.410156 388.320313 L 1061.949219 375.53125 L 1068.050781 363.191406 L 1074.730469 351.121094 L 1082.089844 339.320313 L 1089.898438 327.96875 L 1098.128906 317.03125 L 1107.070313 306.53125 L 1116.308594 296.460938 L 1126.101563 286.800781 L 1136.449219 277.71875 L 1147.089844 269.058594 L 1158.160156 260.960938 L 1169.660156 253.289063 L 1181.558594 246.339844 L 1193.921875 239.820313 L 1206.539063 233.980469 L 1219.609375 228.71875 L 1232.800781 224.039063 L 1246.429688 220.199219 L 1260.328125 216.960938 L 1274.519531 214.25 L 1289 212.398438 L 1303.769531 211.269531 L 1318.660156 210.828125 L 1333.128906 211.269531 L 1347.46875 212.398438 L 1361.660156 214.378906 L 1375.558594 216.960938 L 1389.328125 220.351563 L 1402.960938 224.46875 L 1416.148438 229.160156 L 1429.21875 234.539063 L 1441.988281 240.648438 L 1454.308594 247.339844 L 1466.398438 254.570313 L 1478.148438 262.53125 L 1489.53125 270.890625 L 1500.449219 279.988281 L 1510.949219 289.5 L 1521.160156 299.578125 L 1530.820313 310.078125 L 1539.890625 321.148438 L 1548.550781 332.660156 L 1556.789063 344.578125 L 1564.460938 357.070313 L 1571.410156 369.859375 L 1577.910156 383.070313 L 1583.878906 396.691406 L 1589.128906 410.609375 L 1593.820313 424.929688 L 1597.789063 439.421875 L 1601.070313 454.328125 L 1603.609375 469.671875 L 1605.601563 485.121094 L 1606.738281 500.761719 L 1607 516.78125 L 1473.921875 516.78125 L 1473.769531 507.851563 L 1473.351563 499.179688 L 1472.480469 490.53125 L 1471.199219 482.160156 L 1469.808594 473.789063 L 1467.960938 465.679688 L 1465.800781 457.730469 L 1463.410156 449.929688 L 1460.699219 442.261719 L 1457.601563 434.871094 L 1454.308594 427.78125 L 1450.640625 420.820313 L 1446.679688 414.011719 L 1442.398438 407.628906 L 1437.871094 401.378906 L 1433.179688 395.421875 L 1428.078125 389.738281 L 1422.679688 384.328125 L 1417.011719 379.359375 L 1411.199219 374.550781 L 1405.070313 370.140625 L 1398.539063 366.019531 L 1391.890625 362.191406 L 1385.058594 358.769531 L 1377.828125 355.648438 L 1370.460938 352.949219 L 1362.78125 350.679688 L 1354.980469 348.828125 L 1346.738281 347.28125 L 1338.53125 346.148438 L 1329.878906 345.578125 L 1321.070313 345.300781 L 1312.269531 345.578125 L 1303.769531 346.148438 L 1295.378906 347.28125 L 1287.289063 348.828125 L 1279.351563 350.679688 L 1271.679688 352.949219 L 1264.320313 355.648438 L 1257.21875 358.769531 L 1250.261719 362.191406 L 1243.589844 366.019531 L 1237.199219 370.140625 L 1230.949219 374.550781 L 1225.140625 379.359375 L 1219.46875 384.328125 L 1214.210938 389.738281 L 1209.109375 395.421875 L 1204.269531 401.378906 L 1199.730469 407.628906 L 1195.46875 414.011719 L 1191.660156 420.820313 L 1187.949219 427.78125 L 1184.550781 434.871094 L 1181.558594 442.261719 L 1178.730469 449.929688 L 1176.308594 457.730469 L 1174.199219 465.679688 L 1172.351563 473.789063 L 1170.929688 482.160156 L 1169.800781 490.53125 L 1168.941406 499.179688 L 1168.378906 507.851563 L 1168.230469 516.78125 L 1168.53125 523.878906 L 1169.101563 530.828125 L 1170.230469 537.78125 L 1171.648438 544.511719 L 1173.628906 551.160156 L 1175.75 557.511719 L 1178.441406 563.929688 L 1181.429688 570.050781 L 1184.699219 576.019531 L 1188.261719 581.839844 L 1192.21875 587.511719 L 1196.46875 592.871094 L 1201.019531 598.160156 L 1205.691406 603.160156 L 1210.808594 608.070313 L 1216.070313 612.589844 L 1221.449219 617.058594 L 1227.140625 621.140625 L 1233.078125 625.148438 L 1239.191406 628.851563 L 1245.421875 632.25 L 1251.808594 635.339844 L 1258.351563 638.289063 L 1265.019531 640.859375 L 1271.679688 643.28125 L 1278.640625 645.25 L 1285.589844 647.140625 L 1292.539063 648.570313 L 1299.648438 649.710938 L 1306.730469 650.539063 L 1313.96875 650.988281 L 1321.070313 651.21875 L 2504.441406 651.21875 Z M 2087.808594 94.980469 L 2105.820313 94.980469 L 2107.789063 95.128906 L 2109.640625 95.410156 L 2111.339844 95.699219 L 2113.078125 96.109375 L 2114.640625 96.699219 L 2115.910156 97.261719 L 2117.160156 98.121094 L 2118.449219 98.96875 L 2119.429688 99.96875 L 2120.300781 100.949219 L 2121.019531 102.238281 L 2121.589844 103.660156 L 2122 105.070313 L 2122.300781 106.769531 L 2122.300781 109.75 L 2122.148438 110.890625 L 2122 112.019531 L 2121.699219 113.308594 L 2121.28125 114.441406 L 2120.859375 115.570313 L 2120.148438 116.578125 L 2119.429688 117.558594 L 2118.449219 118.558594 L 2117.320313 119.410156 L 2116.03125 120.261719 L 2114.480469 120.828125 L 2112.78125 121.390625 L 2110.929688 121.828125 L 2108.671875 121.960938 L 2106.238281 122.109375 L 2087.808594 122.109375 Z M 2071.789063 170.230469 L 2087.808594 170.230469 L 2087.808594 134.46875 L 2100.160156 134.46875 L 2103.410156 134.601563 L 2106.238281 134.890625 L 2108.820313 135.320313 L 2111.078125 135.890625 L 2112.929688 136.738281 L 2114.480469 137.589844 L 2115.910156 138.589844 L 2116.898438 139.71875 L 2117.730469 140.851563 L 2118.449219 142.121094 L 2119.011719 143.398438 L 2119.429688 144.820313 L 2119.578125 146.238281 L 2119.730469 147.648438 L 2119.890625 149.089844 L 2119.890625 159.441406 L 2120.039063 162.578125 L 2120.300781 164.980469 L 2120.558594 165.980469 L 2120.71875 166.828125 L 2121.019531 167.53125 L 2121.441406 168.101563 L 2121.851563 168.671875 L 2122.300781 169.25 L 2122.871094 169.660156 L 2123.550781 170.230469 L 2139.609375 170.230469 L 2138.890625 169.539063 L 2138.46875 168.808594 L 2138.019531 168.101563 L 2137.609375 167.398438 L 2137.039063 165.980469 L 2136.769531 163.980469 L 2136.46875 158.730469 L 2135.898438 150.511719 L 2135.75 146.800781 L 2135.5 143.398438 L 2135.191406 141.699219 L 2134.921875 140.128906 L 2134.46875 138.589844 L 2133.941406 137.019531 L 2133.210938 135.601563 L 2132.351563 134.308594 L 2131.359375 133.03125 L 2130.238281 131.898438 L 2128.808594 130.910156 L 2127.25 129.910156 L 2125.550781 129.058594 L 2123.550781 128.210938 L 2125.96875 127.359375 L 2128.128906 126.230469 L 2129.941406 125.101563 L 2131.671875 123.960938 L 2132.921875 122.808594 L 2134.199219 121.550781 L 2135.191406 120.109375 L 2136.058594 118.839844 L 2136.769531 117.558594 L 2137.199219 116.140625 L 2137.609375 114.851563 L 2137.898438 113.589844 L 2138.320313 110.890625 L 2138.320313 106.488281 L 2138.171875 104.648438 L 2137.898438 102.800781 L 2137.460938 101.101563 L 2137.039063 99.53125 L 2136.46875 97.960938 L 2135.75 96.699219 L 2135.191406 95.28125 L 2134.359375 94.148438 L 2133.488281 93 L 2132.648438 92.011719 L 2131.671875 91.011719 L 2130.648438 90.160156 L 2129.671875 89.320313 L 2128.539063 88.589844 L 2127.398438 87.898438 L 2125.140625 86.761719 L 2122.710938 85.761719 L 2120.449219 85.191406 L 2118.03125 84.628906 L 2115.769531 84.210938 L 2113.621094 84.058594 L 2111.800781 83.910156 L 2071.789063 83.910156 Z M 2032.328125 127.078125 L 2032.449219 123.25 L 2032.75 119.539063 L 2033.160156 115.859375 L 2033.730469 112.171875 L 2034.449219 108.621094 L 2035.429688 105.21875 L 2036.570313 101.800781 L 2037.699219 98.53125 L 2039.140625 95.28125 L 2040.679688 92.148438 L 2042.378906 89.03125 L 2044.230469 86.171875 L 2046.078125 83.339844 L 2048.210938 80.511719 L 2050.359375 77.960938 L 2052.738281 75.410156 L 2055.148438 72.988281 L 2057.570313 70.71875 L 2060.25 68.578125 L 2062.980469 66.601563 L 2065.960938 64.75 L 2068.789063 62.898438 L 2071.898438 61.351563 L 2075.039063 59.910156 L 2078.160156 58.648438 L 2081.421875 57.519531 L 2084.808594 56.511719 L 2088.21875 55.660156 L 2091.769531 55.089844 L 2095.320313 54.660156 L 2098.871094 54.378906 L 2102.578125 54.238281 L 2106.238281 54.378906 L 2109.949219 54.660156 L 2113.488281 55.089844 L 2117.050781 55.660156 L 2120.449219 56.511719 L 2123.851563 57.519531 L 2127.101563 58.648438 L 2130.390625 59.910156 L 2133.640625 61.351563 L 2136.621094 62.898438 L 2139.609375 64.75 L 2142.589844 66.601563 L 2145.421875 68.578125 L 2148.109375 70.71875 L 2150.679688 72.988281 L 2153.058594 75.410156 L 2155.480469 77.960938 L 2157.738281 80.511719 L 2159.910156 83.339844 L 2161.871094 86.171875 L 2163.71875 89.03125 L 2165.421875 92.148438 L 2167 95.28125 L 2168.398438 98.53125 L 2169.679688 101.800781 L 2170.820313 105.21875 L 2171.800781 108.621094 L 2172.679688 112.171875 L 2173.238281 115.859375 L 2173.648438 119.539063 L 2173.949219 123.25 L 2174.070313 127.078125 L 2173.949219 130.910156 L 2173.648438 134.730469 L 2173.238281 138.589844 L 2172.679688 142.269531 L 2171.800781 145.949219 L 2170.820313 149.5 L 2169.679688 153.058594 L 2168.398438 156.460938 L 2167 159.871094 L 2165.421875 163.140625 L 2163.71875 166.269531 L 2161.871094 169.25 L 2159.910156 172.21875 L 2157.738281 175.070313 L 2155.480469 177.769531 L 2153.058594 180.320313 L 2150.679688 182.871094 L 2148.109375 185.140625 L 2145.421875 187.410156 L 2142.589844 189.539063 L 2139.609375 191.519531 L 2136.621094 193.21875 L 2133.640625 194.949219 L 2130.390625 196.371094 L 2127.101563 197.78125 L 2123.851563 198.910156 L 2120.449219 199.921875 L 2117.050781 200.761719 L 2113.488281 201.460938 L 2109.949219 201.898438 L 2106.238281 202.179688 L 2102.578125 202.328125 L 2098.871094 202.179688 L 2095.320313 201.898438 L 2091.769531 201.460938 L 2088.21875 200.761719 L 2084.808594 199.921875 L 2081.421875 198.910156 L 2078.160156 197.78125 L 2075.039063 196.371094 L 2071.898438 194.949219 L 2068.789063 193.21875 L 2065.960938 191.519531 L 2062.980469 189.539063 L 2060.25 187.410156 L 2057.570313 185.140625 L 2055.148438 182.871094 L 2052.738281 180.320313 L 2050.359375 177.769531 L 2048.210938 175.070313 L 2046.078125 172.21875 L 2044.230469 169.25 L 2042.378906 166.269531 L 2040.679688 163.140625 L 2039.140625 159.871094 L 2037.699219 156.460938 L 2036.570313 153.058594 L 2035.429688 149.5 L 2034.449219 145.949219 L 2033.730469 142.269531 L 2033.160156 138.589844 L 2032.75 134.730469 L 2032.449219 130.910156 Z M 2015.140625 127.078125 L 2015.140625 131.480469 L 2015.550781 135.890625 L 2016.128906 140.289063 L 2016.851563 144.539063 L 2017.859375 148.789063 L 2019 152.910156 L 2020.390625 157.03125 L 2021.941406 161.011719 L 2023.800781 164.851563 L 2025.648438 168.671875 L 2027.761719 172.371094 L 2030.03125 175.921875 L 2032.601563 179.320313 L 2035.160156 182.589844 L 2037.851563 185.859375 L 2040.828125 188.839844 L 2043.820313 191.820313 L 2047.070313 194.511719 L 2050.359375 197.078125 L 2053.761719 199.628906 L 2057.300781 201.898438 L 2060.980469 204.03125 L 2064.828125 205.878906 L 2068.640625 207.710938 L 2072.609375 209.28125 L 2076.738281 210.699219 L 2080.851563 211.828125 L 2085.121094 212.839844 L 2089.351563 213.539063 L 2093.769531 214.101563 L 2098.160156 214.539063 L 2107.269531 214.539063 L 2111.640625 214.101563 L 2116.179688 213.539063 L 2120.558594 212.839844 L 2124.828125 211.828125 L 2128.949219 210.699219 L 2133.070313 209.28125 L 2137.039063 207.710938 L 2141.011719 205.878906 L 2144.710938 204.03125 L 2148.410156 201.898438 L 2151.921875 199.628906 L 2155.371094 197.078125 L 2158.609375 194.511719 L 2161.871094 191.820313 L 2164.839844 188.839844 L 2167.679688 185.859375 L 2170.398438 182.589844 L 2172.941406 179.320313 L 2175.359375 175.921875 L 2177.628906 172.371094 L 2179.78125 168.671875 L 2181.589844 164.851563 L 2183.441406 161.011719 L 2184.878906 157.03125 L 2186.269531 152.910156 L 2187.398438 148.789063 L 2188.421875 144.539063 L 2189.109375 140.289063 L 2189.710938 135.890625 L 2189.96875 131.480469 L 2190.128906 127.078125 L 2189.96875 122.53125 L 2189.710938 118.121094 L 2189.109375 113.71875 L 2188.421875 109.46875 L 2187.398438 105.351563 L 2186.269531 101.230469 L 2184.878906 97.109375 L 2183.441406 93.28125 L 2181.589844 89.46875 L 2179.78125 85.761719 L 2177.628906 82.070313 L 2175.359375 78.519531 L 2172.941406 75.261719 L 2170.398438 71.988281 L 2167.679688 68.871094 L 2164.839844 65.878906 L 2161.871094 63.050781 L 2158.609375 60.351563 L 2155.371094 57.800781 L 2151.921875 55.378906 L 2148.410156 53.109375 L 2144.710938 50.96875 L 2141.011719 49.121094 L 2137.039063 47.421875 L 2133.070313 45.859375 L 2128.949219 44.589844 L 2124.828125 43.460938 L 2120.558594 42.460938 L 2116.179688 41.738281 L 2111.640625 41.171875 L 2107.269531 40.761719 L 2098.160156 40.761719 L 2093.769531 41.171875 L 2089.351563 41.738281 L 2085.121094 42.460938 L 2080.851563 43.460938 L 2076.738281 44.589844 L 2072.609375 45.859375 L 2068.640625 47.421875 L 2064.828125 49.121094 L 2060.980469 50.96875 L 2057.300781 53.109375 L 2053.761719 55.378906 L 2050.359375 57.800781 L 2047.070313 60.351563 L 2043.820313 63.050781 L 2040.828125 65.878906 L 2037.851563 68.871094 L 2035.160156 71.988281 L 2032.601563 75.261719 L 2030.03125 78.519531 L 2027.761719 82.070313 L 2025.648438 85.761719 L 2023.800781 89.46875 L 2021.941406 93.28125 L 2020.390625 97.109375 L 2019 101.230469 L 2017.859375 105.351563 L 2016.851563 109.46875 L 2016.128906 113.71875 L 2015.550781 118.121094 L 2015.140625 122.53125 Z M 692.414063 0 L 369.433594 0 L 369.433594 134.46875 L 558.023438 134.46875 L 559.296875 1011.320313 L 692.414063 1011.320313 "/>
<path style=" stroke:none;fill-rule:nonzero;fill:rgb(100%,100%,100%);fill-opacity:1;" d="M 556.960938 1287.121094 L 370.085938 1287.121094 L 370.085938 1419.578125 L 556.960938 1419.578125 L 556.960938 2323.128906 L 689.417969 2323.128906 L 689.417969 1287.121094 "/>
<path style=" stroke:none;fill-rule:nonzero;fill:rgb(11.376953%,11.376953%,10.594177%);fill-opacity:1;" d="M 685.976563 2319.691406 L 560.40625 2319.691406 L 560.40625 1416.128906 L 373.53125 1416.128906 L 373.53125 1290.558594 L 685.976563 1290.558594 Z M 689.421875 1283.671875 L 366.640625 1283.671875 L 366.640625 1423.019531 L 553.515625 1423.019531 L 553.515625 2326.578125 L 692.863281 2326.578125 L 692.863281 1283.671875 "/>
<path style=" stroke:none;fill-rule:nonzero;fill:rgb(19.213867%,15.281677%,50.976563%);fill-opacity:1;" d="M 360.640625 1500 L 228.160156 1500 L 228.160156 1632.460938 L 360.640625 1632.460938 L 360.640625 2323.128906 L 493.097656 2323.128906 L 493.097656 1500 "/>
<path style=" stroke:none;fill-rule:nonzero;fill:rgb(100%,100%,100%);fill-opacity:1;" d="M 1312.449219 1496.738281 C 1252.929688 1496.738281 1029.609375 1549.929688 1029.609375 1795.648438 C 1029.609375 1938.859375 1121.550781 2024.21875 1193.019531 2062.03125 C 1236.601563 2083.871094 1289.210938 2082.738281 1289.210938 2082.738281 L 2494.621094 2082.738281 L 2494.621094 1939.039063 L 1300.171875 1939.039063 C 1282.078125 1939.039063 1257.191406 1934.800781 1241.191406 1923.710938 C 1211.089844 1902.890625 1173.308594 1863.980469 1173.308594 1795.648438 C 1173.308594 1655.890625 1306.640625 1641.160156 1313.410156 1640.511719 C 1331.988281 1640.609375 1387.78125 1643.988281 1424.46875 1680.660156 C 1451.238281 1707.398438 1464.820313 1749.269531 1464.820313 1805.121094 L 1608.519531 1805.121094 C 1608.519531 1709.75 1580.769531 1633.671875 1526.039063 1578.988281 C 1451.609375 1504.628906 1360.480469 1496.738281 1312.449219 1496.738281 "/>
<path style=" stroke:none;fill-rule:nonzero;fill:rgb(11.376953%,11.376953%,10.594177%);fill-opacity:1;" d="M 2491.179688 2079.300781 L 1289.210938 2079.300781 C 1288.621094 2079.308594 1236.839844 2080.128906 1194.570313 2058.949219 C 1156.730469 2038.941406 1033.058594 1960.699219 1033.058594 1795.648438 C 1033.058594 1665.929688 1097.019531 1594.199219 1150.679688 1556.878906 C 1210.46875 1515.28125 1280.179688 1500.179688 1312.449219 1500.179688 C 1398.601563 1500.179688 1469.640625 1527.519531 1523.609375 1581.429688 C 1576.988281 1634.769531 1604.269531 1708.898438 1604.949219 1801.671875 L 1468.160156 1801.671875 C 1467.589844 1746.648438 1453.78125 1705.058594 1426.910156 1678.21875 C 1390.070313 1641.410156 1335.28125 1637.179688 1313.429688 1637.070313 C 1307.238281 1637.640625 1169.859375 1652.460938 1169.859375 1795.648438 C 1169.859375 1864.179688 1207.589844 1904.648438 1239.230469 1926.539063 C 1256.191406 1938.300781 1281.828125 1942.488281 1300.171875 1942.488281 L 2491.179688 1942.488281 Z M 1300.171875 1935.589844 C 1283.671875 1935.589844 1258.828125 1931.738281 1243.160156 1920.878906 C 1212.859375 1899.921875 1176.75 1861.191406 1176.75 1795.648438 C 1176.75 1658.648438 1308.148438 1644.480469 1313.738281 1643.941406 C 1334.390625 1644.058594 1387.011719 1648.101563 1422.039063 1683.089844 C 1448.140625 1709.171875 1461.371094 1750.21875 1461.371094 1805.121094 L 1461.371094 1808.558594 L 1611.96875 1808.558594 L 1611.96875 1805.121094 C 1611.96875 1708.800781 1583.878906 1631.898438 1528.480469 1576.558594 C 1473.171875 1521.308594 1400.488281 1493.289063 1312.449219 1493.289063 C 1283.941406 1493.289063 1212.609375 1505.398438 1146.738281 1551.21875 C 1091.738281 1589.488281 1026.171875 1662.949219 1026.171875 1795.648438 C 1026.171875 1964.550781 1152.648438 2044.570313 1191.410156 2065.070313 C 1235.320313 2087.078125 1287.101563 2086.238281 1289.28125 2086.191406 L 2498.070313 2086.191406 L 2498.070313 1935.589844 "/>
<path style=" stroke:none;fill-rule:nonzero;fill:rgb(11.376953%,11.376953%,10.594177%);fill-opacity:1;" d="M 2079.609375 1410.589844 L 2079.609375 1371.121094 L 2093.199219 1371.121094 C 2096.230469 1371.121094 2098.398438 1371.261719 2099.738281 1371.539063 C 2101.539063 1371.988281 2103.328125 1372.78125 2105.078125 1373.929688 C 2106.828125 1375.058594 2108.808594 1377.039063 2111.03125 1379.871094 C 2113.25 1382.691406 2116.078125 1386.78125 2119.5 1392.101563 L 2131.238281 1410.589844 L 2145.921875 1410.589844 L 2130.570313 1386.410156 C 2127.53125 1381.671875 2124.300781 1377.730469 2120.851563 1374.589844 C 2119.238281 1373.128906 2116.859375 1371.660156 2113.769531 1370.171875 C 2122.269531 1368.988281 2128.550781 1366.238281 2132.609375 1361.910156 C 2136.691406 1357.578125 2138.71875 1352.25 2138.71875 1345.929688 C 2138.71875 1341.039063 2137.488281 1336.558594 2135.039063 1332.511719 C 2132.578125 1328.460938 2129.300781 1325.640625 2125.191406 1324.03125 C 2121.058594 1322.441406 2115.070313 1321.640625 2107.160156 1321.640625 L 2067.890625 1321.640625 L 2067.890625 1410.589844 Z M 2079.609375 1331.449219 L 2107.648438 1331.449219 C 2114.21875 1331.449219 2119.03125 1332.808594 2122.078125 1335.53125 C 2125.101563 1338.238281 2126.628906 1341.699219 2126.628906 1345.910156 C 2126.628906 1348.78125 2125.851563 1351.449219 2124.269531 1353.910156 C 2122.691406 1356.351563 2120.398438 1358.128906 2117.378906 1359.238281 C 2114.359375 1360.359375 2110.179688 1360.921875 2104.820313 1360.921875 L 2079.609375 1360.921875 "/>
<path style=" stroke:none;fill-rule:nonzero;fill:rgb(11.376953%,11.376953%,10.594177%);fill-opacity:1;" d="M 2029.230469 1367.929688 C 2029.230469 1327.378906 2062.210938 1294.390625 2102.769531 1294.390625 C 2143.320313 1294.390625 2176.300781 1327.378906 2176.300781 1367.929688 C 2176.300781 1408.46875 2143.320313 1441.460938 2102.769531 1441.460938 C 2062.210938 1441.460938 2029.230469 1408.46875 2029.230469 1367.929688 M 2017.140625 1367.929688 C 2017.140625 1415.140625 2055.550781 1453.558594 2102.769531 1453.558594 C 2149.980469 1453.558594 2188.390625 1415.140625 2188.390625 1367.929688 C 2188.390625 1320.710938 2149.980469 1282.308594 2102.769531 1282.308594 C 2055.550781 1282.308594 2017.140625 1320.710938 2017.140625 1367.929688 "/>
<path style=" stroke:none;fill-rule:nonzero;fill:rgb(19.213867%,15.281677%,50.976563%);fill-opacity:1;" d="M 1254.910156 2159.019531 C 1213.550781 2153.488281 952.855469 2105.78125 952.855469 1783.828125 C 952.855469 1429.300781 1316.609375 1423.671875 1337.5 1423.671875 C 1361.441406 1423.671875 1677.660156 1435.738281 1681.761719 1805.101563 L 1825.46875 1805.101563 C 1821.46875 1378.050781 1463.429688 1281.5 1337.5 1281.5 C 1190.53125 1281.5 809.152344 1371.738281 809.152344 1783.828125 C 809.152344 2156.621094 1092.421875 2285.980469 1242.210938 2302.289063 L 1246.039063 2302.710938 L 2498.738281 2304.75 L 2498.988281 2161.039063 C 2498.988281 2161.039063 1264.441406 2159.039063 1254.910156 2159.019531 "/>
<g clip-path="url(#clip1)" clip-rule="nonzero">
<path style=" stroke:none;fill-rule:evenodd;fill:rgb(100%,92.576599%,0%);fill-opacity:1;" d="M 0 4108.71875 L 2717.648438 4108.71875 L 2717.648438 2568.71875 L 0 2568.71875 Z M 0 4108.71875 "/>
</g>
<path style=" stroke:none;fill-rule:evenodd;fill:rgb(88.671875%,2.352905%,7.446289%);fill-opacity:1;" d="M 1312.5 3042.171875 C 1154.929688 3042.171875 1027.148438 3169.957031 1027.148438 3327.527344 C 1027.148438 3485.097656 1154.929688 3612.878906 1312.5 3612.878906 L 1312.5 3614.027344 L 2494.679688 3614.027344 L 2494.679688 3473.921875 L 1312.5 3473.921875 C 1229.96875 3473.921875 1163.03125 3406.988281 1163.03125 3324.449219 C 1163.03125 3241.914063 1229.96875 3174.980469 1312.5 3174.980469 C 1395.039063 3174.980469 1461.980469 3241.914063 1461.980469 3324.449219 C 1461.980469 3332.570313 1461.308594 3340.535156 1460.058594 3348.296875 L 1597.101563 3348.296875 C 1597.589844 3341.4375 1597.859375 3334.511719 1597.859375 3327.527344 C 1597.859375 3169.957031 1470.070313 3042.171875 1312.5 3042.171875 M 222.972656 3042.171875 L 222.972656 3174.980469 L 358.800781 3174.980469 L 358.800781 3845.042969 L 491.605469 3845.042969 L 491.605469 3042.171875 Z M 358.800781 2832.398438 L 686.285156 2832.398438 L 686.285156 3845.042969 L 548.953125 3845.042969 L 548.953125 2963.699219 L 358.800781 2963.699219 Z M 1309.25 2832.398438 C 1581.929688 2832.398438 1803.300781 3052.339844 1805.699219 3324.449219 L 1805.699219 3348.296875 L 1680.148438 3348.296875 L 1680.148438 3324.449219 L 1680.449219 3324.449219 C 1678.480469 3124.910156 1516.078125 2963.699219 1316.078125 2963.699219 C 1114.851563 2963.699219 951.65625 3126.882813 951.65625 3328.117188 C 951.65625 3529.347656 1114.851563 3692.535156 1316.078125 3692.535156 L 2494.679688 3692.535156 L 2494.679688 3825.398438 L 1309.25 3825.398438 C 1035.089844 3825.398438 812.753906 3603.0625 812.753906 3328.898438 C 812.753906 3054.738281 1035.089844 2832.398438 1309.25 2832.398438 "/>
<path style=" stroke:none;fill-rule:evenodd;fill:rgb(88.671875%,2.352905%,7.446289%);fill-opacity:1;" d="M 1951.089844 2867.101563 C 1983.75 2867.101563 2007.578125 2893.578125 2007.578125 2926.238281 C 2007.578125 2958.890625 1983.75 2985.371094 1951.53125 2984.929688 C 1918.441406 2984.929688 1894.160156 2958.890625 1894.160156 2925.800781 C 1894.160156 2893.578125 1918.441406 2867.101563 1950.648438 2867.101563 Z M 1951.089844 2854.75 L 1951.53125 2854.75 C 1992.128906 2854.75 2023.460938 2886.078125 2023.460938 2925.800781 C 2023.460938 2966.398438 1992.128906 2997.730469 1951.089844 2997.730469 C 1910.488281 2997.730469 1878.28125 2966.398438 1878.28125 2925.800781 C 1878.28125 2886.078125 1910.488281 2854.75 1951.089844 2854.75 M 1938.289063 2899.761719 C 1940.5 2899.320313 1943.589844 2898.878906 1948.878906 2898.878906 C 1962.121094 2898.878906 1966.980469 2904.171875 1966.980469 2911.230469 C 1966.980469 2920.058594 1957.710938 2923.148438 1947.558594 2923.148438 L 1938.289063 2923.148438 Z M 1938.289063 2933.738281 L 1947.121094 2933.738281 C 1957.710938 2933.738281 1962.558594 2937.269531 1964.328125 2945.648438 C 1966.539063 2955.800781 1968.300781 2962.421875 1970.511719 2965.070313 L 1985.070313 2965.070313 C 1983.300781 2962.421875 1981.539063 2958.011719 1979.328125 2946.539063 C 1977.128906 2936.828125 1973.601563 2931.089844 1966.980469 2928.441406 L 1966.980469 2927.558594 C 1974.921875 2924.910156 1981.539063 2919.179688 1981.539063 2909.910156 C 1981.539063 2902.851563 1978.449219 2897.109375 1974.039063 2894.019531 C 1969.191406 2890.488281 1963.011719 2888.28125 1950.648438 2888.28125 C 1940.058594 2888.28125 1932.121094 2889.171875 1924.171875 2890.488281 L 1924.171875 2965.070313 L 1938.289063 2965.070313 "/>
</g>
</svg>
